inDegrees=yes
name=teste_3imus.mot
DataType=double
version=3
OpenSimVersion=4.5
endheader
time	hip_flexion_r	knee_angle_r	hip_flexion_l	knee_angle_l	gearToGround_coord_0
91.2242636680603	82.68578099227186	-76.41203617344006	121.5425387569716	-105.459908638331	-4462.916954182058
91.23021626472473	82.76709849767073	-76.70226779399843	121.6090258143018	-105.3421232063965	-4463.641094605329
91.23420453071594	82.85432308874579	-77.00718992630613	121.2624063464349	-104.8278077711521	-4464.396835971529
91.23827409744263	82.9475290645202	-77.32628146238393	121.3410884382673	-104.7307715050632	-4465.182451360676
91.24120497703552	83.04728585914361	-77.66068457907751	121.1968672799404	-104.2709288196118	-4465.999880684116
91.24625611305237	83.15640999350958	-78.01874300668047	121.0307643254638	-104.0479433255022	-4466.870749943349
91.2512264251709	83.26546878484268	-78.36907098994656	120.662256960229	-103.3849461985237	-4467.714432928164
91.25527310371399	83.38211008579786	-78.73614909690673	120.6894508090158	-103.3416941632144	-4468.594586953593
91.25925207138062	83.50547137970408	-79.1164158321352	120.4944836448298	-102.9671198222003	-4469.500441392189
91.26521229743958	83.63321574440188	-79.50222272684458	120.3312298367555	-102.5683632593358	-4470.413623634953
91.26927995681763	83.76722499293992	-79.89884845200369	120.0868733396803	-102.1941620617528	-4471.346072607933
91.27221965789795	83.90830070920116	-80.30800243795514	119.7564006299014	-101.7090841511263	-4472.303979491207
91.27617835998535	84.04856455276953	-80.70706970041437	119.4739139128887	-101.2226195138147	-4473.230952923906
91.28023767471313	84.19618492966025	-81.11898133012269	119.4727235254265	-100.9801096839581	-4474.184108902581
91.28320074081421	84.34734564984312	-81.5330595868501	119.2105529342817	-100.5782225420186	-4475.137529775036
91.28723382949829	84.50228228757669	-81.94963543095884	118.987321732658	-100.1667380758308	-4476.091887663846
91.29125881195068	84.65862240797745	-82.36250167846123	118.7783420655344	-99.74295139592002	-4477.032850755758
91.29525756835938	84.81618771750624	-82.77142991172336	118.501410565288	-99.3499338518579	-4477.961364055689
91.29825329780579	84.97098493445209	-83.16653836511958	118.298206759471	-98.95782381240174	-4478.854585860048
91.3022129535675	85.12191169496997	-83.54575699680612	118.0861668954533	-98.56471847899689	-4479.710368509735
91.30623173713684	85.26606751884621	-83.90265250401174	117.8002725204746	-98.21353455726651	-4480.511735174871
91.30926489830017	85.40938150687913	-84.2526802177626	117.6607249652732	-97.8543351456447	-4481.296599776487
91.31226778030396	85.54119423835056	-84.57042942917531	117.2245656535329	-97.23090161083196	-4482.005653018079
91.31724905967712	85.66413656454475	-84.86334918191062	117.2202240587719	-97.08631442524862	-4482.657943671509
91.3222348690033	85.78734289561869	-85.15370590847002	117.1024071739358	-96.94807651600304	-4483.306723551973
91.32626581192017	85.90018866306033	-85.41691068787911	116.690552753184	-96.5029052631005	-4483.890010365241
91.32926297187805	86.00868330683825	-85.6675613653215	116.7155768356458	-96.46369018680731	-4484.444847784642
91.33322834968567	86.11373484104932	-85.90808089720512	116.5869744393148	-96.23152770291749	-4484.978696748657
91.33624863624573	86.21495396724825	-86.13784239667098	116.4589552664008	-96.00137282660289	-4485.486470748833
91.33928465843201	86.31454998770438	-86.36207379233069	116.3211307229694	-95.77283835410395	-4485.982655248892
91.34427046775818	86.41168630819668	-86.57903607520485	116.1525523404638	-95.56207697806376	-4486.461439276916
91.35326290130615	86.50490732164096	-86.78565670702632	116.0399477314548	-95.35444205777124	-4486.917559622614
91.35619187355042	86.6006685141797	-86.99638005188108	115.9099687157363	-95.13441711149721	-4487.381786314388
91.36026477813721	86.69305210855767	-87.19817876151346	115.7730919048839	-94.93699273620651	-4487.826627207568
91.36445617675781	86.78560878814216	-87.39892125968345	115.6081257013747	-94.74244542247226	-4488.2676168822
91.36730241775513	86.87612638015253	-87.59388232356564	115.4841931571894	-94.54872889654071	-4488.69633484912
